<?xml version="1.0" encoding="iso-8859-1"?>
<!-- Generator: Adobe Illustrator 19.0.0, SVG Export Plug-In . SVG Version: 6.00 Build 0)  -->
<svg version="1.1" id="Layer_1" xmlns="http://www.w3.org/2000/svg" xmlns:xlink="http://www.w3.org/1999/xlink" x="0px" y="0px"
	 viewBox="0 0 512 512" style="enable-background:new 0 0 512 512;" xml:space="preserve">
<path style="fill:#507C5C;" d="M317.256,389.35c-49.876,0-99.736-18.979-137.706-56.947c-5.734-5.734-5.734-15.032,0-20.767
	c5.734-5.733,15.032-5.733,20.767,0c64.48,64.482,169.396,64.482,233.878,0c31.708-31.706,48.907-73.866,48.428-118.713
	c-0.157-14.832-2.295-29.561-6.354-43.779c-2.226-7.798,2.292-15.924,10.091-18.149c7.8-2.228,15.924,2.292,18.149,10.091
	c4.778,16.738,7.295,34.075,7.48,51.526c0.562,52.808-19.691,102.453-57.028,139.791C417,370.364,367.12,389.35,317.256,389.35z
	 M144.115,258.97c-6.392,0-12.271-4.205-14.112-10.659c-19.416-68.029-0.43-141.339,49.548-191.319
	c75.932-75.929,199.478-75.929,275.41,0c5.734,5.734,5.734,15.032,0,20.767c-5.734,5.732-15.032,5.732-20.767,0
	c-64.482-64.482-169.398-64.482-233.878,0c-42.444,42.444-58.567,104.709-42.074,162.493c2.226,7.798-2.292,15.924-10.091,18.149
	C146.805,258.786,145.449,258.97,144.115,258.97z"/>
<path style="fill:#CFF09E;" d="M232.967,278.987c-46.477-46.477-46.477-122.1,0-168.577s122.1-46.477,168.577,0
	s46.477,122.1,0,168.577S279.444,325.463,232.967,278.987z"/>
<g>
	<path style="fill:#507C5C;" d="M317.256,328.528c-35.799,0-69.42-13.907-94.671-39.158c-25.251-25.251-39.158-58.872-39.158-94.671
		s13.907-69.42,39.158-94.673c25.251-25.251,58.872-39.158,94.671-39.158c35.797,0,69.42,13.907,94.671,39.158
		s39.158,58.874,39.158,94.673s-13.907,69.418-39.158,94.671C386.675,314.621,353.053,328.528,317.256,328.528z M317.256,90.235
		c-27.955,0-54.2,10.853-73.906,30.558c-19.705,19.705-30.558,45.952-30.558,73.906c0,27.953,10.853,54.2,30.557,73.904
		c19.705,19.705,45.951,30.558,73.906,30.558c27.953,0,54.2-10.853,73.906-30.558c19.705-19.704,30.557-45.951,30.557-73.904
		c0-27.955-10.851-54.2-30.557-73.906C371.456,101.087,345.209,90.235,317.256,90.235z"/>
	<path style="fill:#507C5C;" d="M153.219,373.418c-3.758,0-7.515-1.435-10.383-4.301c-5.734-5.734-5.735-15.032,0-20.767
		l35.575-35.577c5.734-5.733,15.032-5.733,20.766,0c5.734,5.734,5.735,15.032,0,20.767l-35.575,35.577
		C160.736,371.984,156.977,373.418,153.219,373.418z"/>
	<path style="fill:#507C5C;" d="M58.011,511.954c-3.758,0-7.515-1.435-10.383-4.301L4.301,464.326
		C1.548,461.572,0,457.837,0,453.943s1.548-7.628,4.301-10.383l115.161-115.162c2.753-2.753,6.489-4.301,10.383-4.301
		c3.894,0,7.63,1.548,10.383,4.301l43.327,43.328c5.734,5.734,5.734,15.032,0,20.767L68.393,507.655
		C65.527,510.519,61.768,511.954,58.011,511.954z M35.449,453.943l22.561,22.561l94.395-94.395l-22.561-22.561L35.449,453.943z"/>
</g>
<g>
</g>
<g>
</g>
<g>
</g>
<g>
</g>
<g>
</g>
<g>
</g>
<g>
</g>
<g>
</g>
<g>
</g>
<g>
</g>
<g>
</g>
<g>
</g>
<g>
</g>
<g>
</g>
<g>
</g>
</svg>
